Housewife and mother Penny Chenery agrees to take over her ailing father's Virginia-based Meadow Stables, despite her lack of horse-racing knowledge. Against all odds, Chenery -- with the help of veteran trainer Lucien Laurin -- manages to navigate the male-dominated business, ultimately fostering the first Triple Crown winner in twenty-five years. 


Encoded By .......:Xclusive 

Runtime ..........:1:59 

IMDb URL .........:http://www.imdb.com/title/tt1028576/

Language .........:English

File Size ........:1.01gb



¦¦¦ ¦¦¦ 

¦¦¦¦¦_______________________ Audio/Video _____________________________¦¦¦¦¦ 

Video

ID : 0

Format : MPEG-4 Visual

Format profile : Advanced Simple@L5

Format settings, BVOP : Yes

Format settings, QPel : No

Format settings, GMC : No warppoints

Format settings, Matrix : Custom

Codec ID : XVID

Codec ID/Hint : XviD

Duration : 1h 59mn

Bit rate : 1 075 Kbps

Width : 680 pixels

Height : 368 pixels

Display aspect ratio : 16:9

Frame rate : 29.970 fps

Color space : YUV

Chroma subsampling : 4:2:0

Bit depth : 8 bits

Scan type : Progressive

Bits/(Pixel*Frame) : 0.143

Stream size : 918 MiB (89%)

Writing library : XviD 1.2.1 (UTC 2008-12-04)



Audio

ID : 1

Format : AC-3

Format/Info : Audio Coding 3

Mode extension : CM (complete main)

Codec ID : 2000

Duration : 1h 59mn

Bit rate mode : Constant

Bit rate : 128 Kbps

Channel(s) : 2 channels

Channel positions : Front: L R

Sampling rate : 48.0 KHz

Bit depth : 16 bits

Stream size : 109 MiB (11%)

Alignment : Aligned on interleaves

Interleave, duration : 33 ms (1.00 video frame)

Interleave, preload duration : 512 ms



VIDEo:Own

AUDIO:Own



Just a simple rip from our vob's blurred the watermark in tne bottom right corner adjusted colors usual video filters






================================== 
http://thepiratebay.org/user/hiest
==================================






Screen Shots:
 
http://www.grinshare.com/img/X059XA.png
 
http://www.grinshare.com/img/IAA1TM.png
 
http://www.grinshare.com/img/CZ06RV.png

